<svg width="98" height="42" viewBox="0 0 98 42" fill="none" xmlns="http://www.w3.org/2000/svg">
<path d="M16.1722 25.5063H10.2229V42H23.6683V36.8163H16.1722V25.5063Z" fill="black"/>
<path d="M47.8523 8.669C48.8141 8.52173 49.8056 8.43828 50.8269 8.43828C51.8532 8.43828 52.8398 8.52664 53.8016 8.669V5.65497H58.799V0.471241H42.8549V5.65497H47.8523V8.669Z" fill="black"/>
<path d="M17.491 9.89621H17.253L15.4682 0.471241H9.25613L7.61512 9.89621H7.37714L5.94931 0.471241H0L3.4506 16.9649H10.7088L12.2556 8.01121H12.4936L14.1594 16.9649H21.2985L24.6301 0.471241H18.7998L17.491 9.89621Z" fill="black"/>
<path d="M31.4421 13.9018H36.5189C38.0012 12.7139 39.7067 11.575 41.6105 10.6473L38.8193 0.471241H29.4193L24.7789 16.9649H30.6092L31.4421 13.9018ZM33.5839 5.41935H34.5358L35.6066 9.77839H32.394L33.5839 5.41935Z" fill="black"/>
<path d="M92.3977 35.3093C93.1364 34.5778 93.8256 33.4243 93.8256 31.6325C93.8256 28.0982 91.2079 25.5063 86.9244 25.5063H77.6435V42H83.5928V37.5231H85.7345L88.1142 42H94.0635L90.9699 36.345C91.5153 36.0849 91.9912 35.7314 92.3977 35.3093ZM86.2105 33.0463H83.5928V30.2188H86.2105C87.1623 30.2188 87.7573 30.8079 87.7573 31.6325C87.7573 32.4572 87.1623 33.0463 86.2105 33.0463Z" fill="black"/>
<path d="M92.0507 0.471241V6.12622H87.2912V0.471241H81.3419V16.9649H87.2912V11.31H92.0507V16.9649H98V0.471241H92.0507Z" fill="black"/>
<path d="M32.8253 25.5063H29.4342L24.7938 42H30.6241L31.457 38.9369H36.5734L37.4063 42H43.3556L40.5148 31.6424C37.2774 29.8555 34.6746 27.5042 32.8253 25.5063ZM32.4089 34.8135L33.5987 30.4544H34.5506L35.6215 34.8135H32.4089Z" fill="black"/>
<path d="M72.8691 10.1318C72.7501 10.5785 72.537 10.9565 72.2494 11.31C71.7735 11.899 70.9901 12.4881 69.6565 12.4881C67.7527 12.4881 66.3249 11.0743 66.3249 8.71809C66.3249 6.36185 67.7527 4.94811 69.6565 4.94811C70.8712 4.94811 71.6099 5.41936 72.0858 5.8906C72.3734 6.17532 72.5865 6.47966 72.7502 6.8331H78.6995C78.3425 5.56171 77.7971 4.42777 77.0337 3.41655C75.7 1.71809 73.4641 0 69.6565 0C63.9204 0 60.1376 3.8878 60.1376 8.71809C60.1376 9.4446 60.2318 10.1466 60.4004 10.8191C64.0195 12.6599 66.895 15.2419 68.8831 17.4018C69.1409 17.4166 69.3937 17.4362 69.6565 17.4362C73.5136 17.4362 75.7744 15.6199 77.1279 13.784C77.9112 12.6992 78.4615 11.4769 78.8184 10.1318H72.8691Z" fill="black"/>
<path d="M60.7127 31.878V42H74.3961V37.2875H66.662V35.756H72.7303V31.7503H66.662V30.2188H74.3961V25.5063H68.8335C66.9 27.5926 64.1534 30.0666 60.7127 31.878Z" fill="black"/>
<path d="M50.8269 34.4208C49.8106 34.4208 48.824 34.3324 47.8672 34.19V42H53.8165V34.1851C52.8497 34.3324 51.8582 34.4208 50.8269 34.4208Z" fill="black"/>
<path d="M57.4108 20.3422C55.0708 20.3422 53.1769 18.467 53.1769 16.1501C53.1769 15.2027 53.4992 14.3338 54.0297 13.6318C53.0431 13.2342 51.9623 13.0084 50.8269 13.0084C46.1319 13.0084 42.3194 16.7784 42.3194 21.432C42.3194 26.0807 46.127 29.8555 50.8269 29.8555C55.5219 29.8555 59.3345 26.0856 59.3345 21.432C59.3345 20.9264 59.2799 20.4355 59.1956 19.9495C58.6503 20.1999 58.0504 20.3422 57.4108 20.3422Z" fill="black"/>
</svg>
